<?xml version="1.0" encoding="UTF-8"?>
<svg id="Layer_2" data-name="Layer 2" xmlns="http://www.w3.org/2000/svg" viewBox="0 0 337.29 427.89">
  <defs>
    <style>
      .cls-1 {
        fill: #fee202;
      }
    </style>
  </defs>
  <g id="Layer_1-2" data-name="Layer 1">
    <g>
      <path class="cls-1" d="M300.11,33.47c-9.25-9.06-19.47-17.82-30.65-24.93-4.68-2.98-15.84-11.77-20.13-7.29-1.8,1.88-10.63,41.97-13.61,50.2-21.14,58.46-74.96,110.48-114.21,162.5h0c-6.61,8.78-12.96,17.72-18.85,26.92-32.59,50.87-26.28,111.65,16.52,153.56,9.25,9.06,19.47,17.82,30.65,24.93,4.68,2.98,15.84,11.77,20.13,7.29,1.8-1.88,10.63-41.97,13.61-50.2,21.14-58.46,74.96-110.48,114.21-162.5h0c6.61-8.78,12.96-17.72,18.85-26.92,32.59-50.87,26.28-111.65-16.52-153.56Z"/>
      <circle class="cls-1" cx="82.01" cy="82.01" r="82.01"/>
    </g>
  </g>
</svg>